<mxfile host="app.diagrams.net" agent="Mozilla/5.0 (Macintosh; Intel Mac OS X 10_15_7) AppleWebKit/605.1.15 (KHTML, like Gecko) Version/18.3 Safari/605.1.15" version="26.2.12">
  <diagram name="Trang-1" id="xDpdyvEpZPKsj1WD2KsW">
    <mxGraphModel dx="2255" dy="832" grid="1" gridSize="10" guides="1" tooltips="1" connect="1" arrows="1" fold="1" page="1" pageScale="1" pageWidth="827" pageHeight="1169" math="0" shadow="0">
      <root>
        <mxCell id="0" />
        <mxCell id="1" parent="0" />
        <mxCell id="s0TGtjWvJmP3pw0Qdyqn-2" style="rounded=0;orthogonalLoop=1;jettySize=auto;html=1;entryX=0;entryY=0.5;entryDx=0;entryDy=0;endArrow=none;startFill=0;" parent="1" source="s0TGtjWvJmP3pw0Qdyqn-6" target="s0TGtjWvJmP3pw0Qdyqn-8" edge="1">
          <mxGeometry relative="1" as="geometry" />
        </mxCell>
        <mxCell id="s0TGtjWvJmP3pw0Qdyqn-3" style="edgeStyle=orthogonalEdgeStyle;rounded=0;orthogonalLoop=1;jettySize=auto;html=1;endArrow=none;startFill=0;" parent="1" source="s0TGtjWvJmP3pw0Qdyqn-6" target="s0TGtjWvJmP3pw0Qdyqn-9" edge="1">
          <mxGeometry relative="1" as="geometry" />
        </mxCell>
        <mxCell id="s0TGtjWvJmP3pw0Qdyqn-4" style="rounded=0;orthogonalLoop=1;jettySize=auto;html=1;entryX=0;entryY=0.5;entryDx=0;entryDy=0;endArrow=none;startFill=0;" parent="1" source="s0TGtjWvJmP3pw0Qdyqn-6" target="s0TGtjWvJmP3pw0Qdyqn-19" edge="1">
          <mxGeometry relative="1" as="geometry" />
        </mxCell>
        <mxCell id="s0TGtjWvJmP3pw0Qdyqn-5" style="rounded=0;orthogonalLoop=1;jettySize=auto;html=1;entryX=0;entryY=0.5;entryDx=0;entryDy=0;endArrow=none;startFill=0;" parent="1" source="s0TGtjWvJmP3pw0Qdyqn-6" target="s0TGtjWvJmP3pw0Qdyqn-20" edge="1">
          <mxGeometry relative="1" as="geometry" />
        </mxCell>
        <mxCell id="s0TGtjWvJmP3pw0Qdyqn-6" value="&lt;font style=&quot;font-size: 11px;&quot;&gt;Device Type Manager&lt;/font&gt;" style="shape=umlActor;verticalLabelPosition=bottom;verticalAlign=top;html=1;outlineConnect=0;" parent="1" vertex="1">
          <mxGeometry x="50" y="370" width="30" height="60" as="geometry" />
        </mxCell>
        <mxCell id="s0TGtjWvJmP3pw0Qdyqn-7" value="" style="rounded=0;whiteSpace=wrap;html=1;fillColor=none;" parent="1" vertex="1">
          <mxGeometry x="250" y="80" width="730" height="630" as="geometry" />
        </mxCell>
        <mxCell id="s0TGtjWvJmP3pw0Qdyqn-8" value="Tạo loại thiết bị" style="ellipse;whiteSpace=wrap;html=1;" parent="1" vertex="1">
          <mxGeometry x="294" y="240" width="120" height="80" as="geometry" />
        </mxCell>
        <mxCell id="s0TGtjWvJmP3pw0Qdyqn-9" value="Chỉnh sửa loại thiết bị" style="ellipse;whiteSpace=wrap;html=1;" parent="1" vertex="1">
          <mxGeometry x="294" y="360" width="120" height="80" as="geometry" />
        </mxCell>
        <mxCell id="s0TGtjWvJmP3pw0Qdyqn-10" style="rounded=0;orthogonalLoop=1;jettySize=auto;html=1;dashed=1;" parent="1" source="s0TGtjWvJmP3pw0Qdyqn-12" target="s0TGtjWvJmP3pw0Qdyqn-9" edge="1">
          <mxGeometry relative="1" as="geometry" />
        </mxCell>
        <mxCell id="s0TGtjWvJmP3pw0Qdyqn-11" value="&amp;lt;&amp;lt;extend&amp;gt;&amp;gt;" style="edgeLabel;html=1;align=center;verticalAlign=middle;resizable=0;points=[];rotation=-15;" parent="s0TGtjWvJmP3pw0Qdyqn-10" connectable="0" vertex="1">
          <mxGeometry x="0.0134" y="1" relative="1" as="geometry">
            <mxPoint as="offset" />
          </mxGeometry>
        </mxCell>
        <mxCell id="s0TGtjWvJmP3pw0Qdyqn-12" value="Thêm các cấu hình mới" style="ellipse;whiteSpace=wrap;html=1;" parent="1" vertex="1">
          <mxGeometry x="580" y="280" width="120" height="80" as="geometry" />
        </mxCell>
        <mxCell id="s0TGtjWvJmP3pw0Qdyqn-13" value="Điều chinh chi tiết các cấu hình" style="ellipse;whiteSpace=wrap;html=1;" parent="1" vertex="1">
          <mxGeometry x="580" y="520" width="120" height="80" as="geometry" />
        </mxCell>
        <mxCell id="s0TGtjWvJmP3pw0Qdyqn-14" value="Xóa các cấu hình" style="ellipse;whiteSpace=wrap;html=1;" parent="1" vertex="1">
          <mxGeometry x="580" y="400" width="120" height="80" as="geometry" />
        </mxCell>
        <mxCell id="s0TGtjWvJmP3pw0Qdyqn-15" style="rounded=0;orthogonalLoop=1;jettySize=auto;html=1;dashed=1;entryX=1;entryY=0.5;entryDx=0;entryDy=0;" parent="1" target="s0TGtjWvJmP3pw0Qdyqn-9" edge="1">
          <mxGeometry relative="1" as="geometry">
            <mxPoint x="580.37" y="439.59000000000003" as="sourcePoint" />
            <mxPoint x="404.37" y="489.59000000000003" as="targetPoint" />
          </mxGeometry>
        </mxCell>
        <mxCell id="s0TGtjWvJmP3pw0Qdyqn-16" value="&amp;lt;&amp;lt;extend&amp;gt;&amp;gt;" style="edgeLabel;html=1;align=center;verticalAlign=middle;resizable=0;points=[];rotation=15;" parent="s0TGtjWvJmP3pw0Qdyqn-15" connectable="0" vertex="1">
          <mxGeometry x="0.0134" y="1" relative="1" as="geometry">
            <mxPoint as="offset" />
          </mxGeometry>
        </mxCell>
        <mxCell id="s0TGtjWvJmP3pw0Qdyqn-17" style="rounded=0;orthogonalLoop=1;jettySize=auto;html=1;dashed=1;entryX=0.975;entryY=0.663;entryDx=0;entryDy=0;exitX=0;exitY=0.5;exitDx=0;exitDy=0;entryPerimeter=0;" parent="1" source="s0TGtjWvJmP3pw0Qdyqn-13" target="s0TGtjWvJmP3pw0Qdyqn-9" edge="1">
          <mxGeometry relative="1" as="geometry">
            <mxPoint x="580.37" y="509.59000000000003" as="sourcePoint" />
            <mxPoint x="414" y="470" as="targetPoint" />
          </mxGeometry>
        </mxCell>
        <mxCell id="s0TGtjWvJmP3pw0Qdyqn-18" value="&amp;lt;&amp;lt;extend&amp;gt;&amp;gt;" style="edgeLabel;html=1;align=center;verticalAlign=middle;resizable=0;points=[];rotation=41;" parent="s0TGtjWvJmP3pw0Qdyqn-17" connectable="0" vertex="1">
          <mxGeometry x="0.0134" y="1" relative="1" as="geometry">
            <mxPoint as="offset" />
          </mxGeometry>
        </mxCell>
        <mxCell id="s0TGtjWvJmP3pw0Qdyqn-19" value="Xóa loai thiết bị" style="ellipse;whiteSpace=wrap;html=1;" parent="1" vertex="1">
          <mxGeometry x="294" y="610" width="120" height="80" as="geometry" />
        </mxCell>
        <mxCell id="s0TGtjWvJmP3pw0Qdyqn-20" value="Sao chép từ loại thiết bị có sẵn" style="ellipse;whiteSpace=wrap;html=1;" parent="1" vertex="1">
          <mxGeometry x="294" y="120" width="120" height="80" as="geometry" />
        </mxCell>
        <mxCell id="s0TGtjWvJmP3pw0Qdyqn-21" style="rounded=0;orthogonalLoop=1;jettySize=auto;html=1;endArrow=block;endFill=0;" parent="1" source="s0TGtjWvJmP3pw0Qdyqn-22" target="s0TGtjWvJmP3pw0Qdyqn-6" edge="1">
          <mxGeometry relative="1" as="geometry" />
        </mxCell>
        <mxCell id="s0TGtjWvJmP3pw0Qdyqn-22" value="Engineer" style="shape=umlActor;verticalLabelPosition=bottom;verticalAlign=top;html=1;outlineConnect=0;" parent="1" vertex="1">
          <mxGeometry x="-100" y="570" width="30" height="60" as="geometry" />
        </mxCell>
        <mxCell id="s0TGtjWvJmP3pw0Qdyqn-23" value="Admin" style="shape=umlActor;verticalLabelPosition=bottom;verticalAlign=top;html=1;outlineConnect=0;" parent="1" vertex="1">
          <mxGeometry x="-100" y="290" width="30" height="60" as="geometry" />
        </mxCell>
        <mxCell id="s0TGtjWvJmP3pw0Qdyqn-25" value="Xem các loại thiết bị" style="ellipse;whiteSpace=wrap;html=1;" parent="1" vertex="1">
          <mxGeometry x="800" y="360" width="120" height="80" as="geometry" />
        </mxCell>
        <mxCell id="s0TGtjWvJmP3pw0Qdyqn-26" style="edgeStyle=orthogonalEdgeStyle;rounded=0;orthogonalLoop=1;jettySize=auto;html=1;" parent="1" source="s0TGtjWvJmP3pw0Qdyqn-27" target="s0TGtjWvJmP3pw0Qdyqn-25" edge="1">
          <mxGeometry relative="1" as="geometry" />
        </mxCell>
        <mxCell id="s0TGtjWvJmP3pw0Qdyqn-27" value="User" style="shape=umlActor;verticalLabelPosition=bottom;verticalAlign=top;html=1;outlineConnect=0;" parent="1" vertex="1">
          <mxGeometry x="1070" y="370" width="30" height="60" as="geometry" />
        </mxCell>
        <mxCell id="s0TGtjWvJmP3pw0Qdyqn-28" value="&lt;b&gt;&lt;font style=&quot;font-size: 30px;&quot;&gt;Quản lý loại thiết bị&lt;/font&gt;&lt;/b&gt;" style="text;html=1;align=center;verticalAlign=middle;resizable=0;points=[];autosize=1;strokeColor=none;fillColor=none;" parent="1" vertex="1">
          <mxGeometry x="465" y="8" width="300" height="50" as="geometry" />
        </mxCell>
        <mxCell id="lFgTuiHi0HV8vIcOj9H--1" style="rounded=0;orthogonalLoop=1;jettySize=auto;html=1;exitX=0.5;exitY=0.5;exitDx=0;exitDy=0;exitPerimeter=0;entryX=0;entryY=0.3333333333333333;entryDx=0;entryDy=0;entryPerimeter=0;endArrow=block;endFill=0;" edge="1" parent="1" source="s0TGtjWvJmP3pw0Qdyqn-23" target="s0TGtjWvJmP3pw0Qdyqn-6">
          <mxGeometry relative="1" as="geometry" />
        </mxCell>
      </root>
    </mxGraphModel>
  </diagram>
</mxfile>
